<?xml version="1.0" encoding="UTF-8"?><svg id="b" xmlns="http://www.w3.org/2000/svg" width="402.26" height="480.76" viewBox="0 0 402.26 480.76"><text transform="translate(0 376.36)" fill="#fff" font-family="FormaDJRDeck-Bold, &apos;Forma DJR Deck&apos;" font-size="72" font-weight="700"><tspan x="0" y="0">MOONSH</tspan><tspan x="311.04" y="0" letter-spacing="-.04em">O</tspan><tspan x="361.44" y="0" letter-spacing="-.02em">T</tspan><tspan x="65.27" y="86.4" letter-spacing="-.03em">C</tspan><tspan x="113.29" y="86.4">API</tspan><tspan x="220.86" y="86.4" letter-spacing="-.11em">T</tspan><tspan x="254.19" y="86.4">A</tspan><tspan x="302.36" y="86.4" letter-spacing="-.02em">L</tspan></text><path d="m160.67,23.19s-78.27,11.6-106.78,96.15c0,0-41.07,121.28,75.38,175.88,0,0,137.71,54.12,203.42-99.05,0,0-142.91,107.51-207.77-2.66,0,0-49.28-82.62,35.76-170.32Z" fill="#fff"/><circle cx="109.34" cy="96.76" r="13.41" fill="#fff"/><ellipse cx="106.71" cy="96.76" rx="6.07" ry="7.12"/><circle cx="150.19" cy="81.05" r="7.72" fill="#fff"/><circle cx="166.69" cy="209.1" r="4.98" fill="#fff"/><circle cx="165.96" cy="62.39" r="4.25" fill="#fff"/><circle cx="285.4" cy="185.8" r="4.25" fill="#fff"/><circle cx="285.4" cy="213.97" r="5.46" fill="#fff"/><circle cx="114.05" cy="176.12" r="18.12" fill="#fff"/><circle cx="110.68" cy="176.12" r="9.68"/><circle cx="229.1" cy="243.85" r="12.5" fill="#fff"/><circle cx="229.1" cy="243.85" r="6.46"/><path d="m355.39,0s-41.07,12.08-74.89,51.22h-18.36l-15.94,15.46,15.46,5.31-4.95,10.15,17.15,17.27,9.06-5.44,5.92,16.55,16.31-15.94-.48-18.12S350.32,34.55,355.39,0Z" fill="#fff"/><polygon points="254.47 86.61 269.15 101.65 262.62 105.82 249.94 93.49 254.47 86.61" fill="#fff"/><polygon points="248.49 96.76 259.54 107.99 180 177.21 248.49 96.76" fill="#fff"/><path d="m129.75,240.14s8.94,22.77,30.2,16.22c0,0-28.99,18.81-30.2-16.22Z"/><path d="m209.58,275.66s9.6,17.49,26.12,9.99c0,0-21.5,18.23-26.12-9.99Z"/><path d="m77.2,119.34s-7.66,19.24,3.87,29.23c0,0-23.81-15.81-3.87-29.23Z"/><path d="m83.29,210.35s2.35,18.21,19.02,17.32c0,0-24.54,8.4-19.02-17.32Z"/></svg>